<svg width="29" height="21" viewBox="0 0 29 21" fill="none" xmlns="http://www.w3.org/2000/svg">
<path d="M26.4512 0.698242H2.54883C1.14516 0.698242 0 1.74673 0 3.03445V18.6092C0 19.8925 1.14006 20.9454 2.54883 20.9454H26.4512C27.8513 20.9454 29 19.9004 29 18.6092V3.03445C29 1.75109 27.8599 0.698242 26.4512 0.698242ZM26.0992 2.25571L14.554 12.8379L2.90901 2.25571H26.0992ZM1.69922 18.2867V3.34953L9.8826 10.7859L1.69922 18.2867ZM2.90074 19.3879L11.0893 11.8824L13.9585 14.4898C14.2907 14.7916 14.8266 14.7906 15.1574 14.4874L17.9551 11.9231L26.0993 19.3879H2.90074ZM27.3008 18.2866L19.1566 10.8218L27.3008 3.35695V18.2866Z" fill="white"/>
</svg>
