<svg width="31" height="31" viewBox="0 0 31 31" fill="none" xmlns="http://www.w3.org/2000/svg">
<path d="M11.3468 18.771C12.3169 17.8868 12.8359 16.6939 12.8359 15.4395C12.8359 12.929 10.745 10.8984 8.23438 10.8984C5.72398 10.8984 3.63281 12.9288 3.63281 15.4395C3.63281 16.6867 4.14631 17.8814 5.12202 18.7709C2.12017 19.992 0 22.9236 0 26.3379V30.0918C0 30.5934 0.406633 31 0.908203 31H15.5605C16.0621 31 16.4688 30.5934 16.4688 30.0918V26.3379C16.4688 22.9236 14.3486 19.992 11.3468 18.771ZM8.23438 12.7148C9.74411 12.7148 11.0195 13.9625 11.0195 15.4395C11.0195 16.9164 9.74411 18.1641 8.23438 18.1641C6.72464 18.1641 5.44922 16.9164 5.44922 15.4395C5.44922 13.9625 6.72464 12.7148 8.23438 12.7148ZM14.6523 29.1836H1.81641V26.3379C1.81641 22.8324 4.69553 19.9805 8.23444 19.9805C11.7733 19.9805 14.6523 22.8324 14.6523 26.3379V29.1836Z" fill="white"/>
<path d="M22.8262 0C18.3191 0 14.6523 3.66678 14.6523 8.17383C14.6523 9.58009 15.0111 10.952 15.6936 12.1685L14.6989 15.1522C14.5941 15.4667 14.6689 15.8133 14.8942 16.0565C15.1198 16.3002 15.4598 16.4008 15.7808 16.3205L19.1531 15.4775C20.2867 16.0477 21.5488 16.3477 22.8262 16.3477C27.3332 16.3477 31 12.6809 31 8.17383C31 3.66678 27.3332 0 22.8262 0ZM22.8262 14.5312C21.7357 14.5312 20.6603 14.2507 19.7162 13.7201C19.514 13.6065 19.276 13.5745 19.0509 13.6307L16.9454 14.1571L17.5484 12.3482C17.6348 12.0892 17.6 11.805 17.4537 11.5744C16.8093 10.5589 16.4687 9.38301 16.4687 8.17383C16.4687 4.66835 19.3207 1.81641 22.8262 1.81641C26.3316 1.81641 29.1836 4.66835 29.1836 8.17383C29.1836 11.6793 26.3316 14.5312 22.8262 14.5312Z" fill="white"/>
<path d="M22.8262 6.35742C23.3278 6.35742 23.7344 5.95081 23.7344 5.44922C23.7344 4.94763 23.3278 4.54102 22.8262 4.54102C22.3246 4.54102 21.918 4.94763 21.918 5.44922C21.918 5.95081 22.3246 6.35742 22.8262 6.35742Z" fill="white"/>
<path d="M22.8262 7.26562C22.3246 7.26562 21.918 7.67226 21.918 8.17383V11.8066C21.918 12.3082 22.3246 12.7148 22.8262 12.7148C23.3277 12.7148 23.7344 12.3082 23.7344 11.8066V8.17383C23.7344 7.67226 23.3277 7.26562 22.8262 7.26562Z" fill="white"/>
</svg>
