<svg width="20" height="20" viewBox="0 0 20 20" fill="none" xmlns="http://www.w3.org/2000/svg">
<path d="M15.707 10.293C15.6142 10.2001 15.504 10.1263 15.3827 10.076C15.2614 10.0257 15.1313 9.99982 15 9.99982C14.8687 9.99982 14.7386 10.0257 14.6173 10.076C14.496 10.1263 14.3858 10.2001 14.293 10.293L12.699 11.887C11.96 11.667 10.581 11.167 9.707 10.293C8.833 9.41902 8.333 8.04002 8.113 7.30102L9.707 5.70702C9.79994 5.61423 9.87368 5.50403 9.92399 5.38271C9.9743 5.2614 10.0002 5.13135 10.0002 5.00002C10.0002 4.86868 9.9743 4.73864 9.92399 4.61732C9.87368 4.49601 9.79994 4.38581 9.707 4.29302L5.707 0.293018C5.61421 0.200072 5.50401 0.126334 5.38269 0.0760237C5.26138 0.025713 5.13133 -0.000183105 5 -0.000183105C4.86866 -0.000183105 4.73862 0.025713 4.6173 0.0760237C4.49599 0.126334 4.38579 0.200072 4.293 0.293018L1.581 3.00502C1.201 3.38502 0.986998 3.90702 0.994998 4.44002C1.018 5.86402 1.395 10.81 5.293 14.708C9.191 18.606 14.137 18.982 15.562 19.006H15.59C16.118 19.006 16.617 18.798 16.995 18.42L19.707 15.708C19.7999 15.6152 19.8737 15.505 19.924 15.3837C19.9743 15.2624 20.0002 15.1324 20.0002 15.001C20.0002 14.8697 19.9743 14.7396 19.924 14.6183C19.8737 14.497 19.7999 14.3868 19.707 14.294L15.707 10.293ZM15.58 17.005C14.332 16.984 10.062 16.649 6.707 13.293C3.341 9.92702 3.015 5.64202 2.995 4.41902L5 2.41402L7.586 5.00002L6.293 6.29302C6.17546 6.41047 6.08904 6.55536 6.04155 6.71459C5.99406 6.87382 5.987 7.04237 6.021 7.20502C6.045 7.32002 6.632 10.047 8.292 11.707C9.952 13.367 12.679 13.954 12.794 13.978C12.9565 14.013 13.1253 14.0065 13.2846 13.9591C13.444 13.9118 13.5889 13.8251 13.706 13.707L15 12.414L17.586 15L15.58 17.005Z" fill="#06A2C2"/>
</svg>
