<svg width="26" height="29" viewBox="0 0 26 29" fill="none" xmlns="http://www.w3.org/2000/svg">
<path d="M12.6186 0L0 1.83111V28.7647L12.6186 26.9336L25.2372 28.7647V1.83111L12.6186 0ZM11.765 25.3324L1.70717 26.7918V3.30844L11.765 1.84903V25.3324ZM23.53 26.7918L13.4722 25.3324V1.84897L23.53 3.30839V26.7918Z" fill="white"/>
<path d="M15.3923 12.3933V23.8813L21.6099 24.7835V13.2955L15.3923 12.3933ZM19.9027 22.8107L17.0994 22.404V14.3662L19.9027 14.7729V22.8107Z" fill="white"/>
<path d="M3.62727 13.2955V24.7836L9.84494 23.8814V12.3932L3.62727 13.2955ZM8.13777 22.404L5.3345 22.8107V14.7729L8.13777 14.3662V22.404Z" fill="white"/>
<path d="M15.4909 3.90424L15.2458 5.59366L21.5089 6.5025L21.754 4.81308L15.4909 3.90424Z" fill="white"/>
<path d="M15.4909 6.71708L15.2457 8.40649L21.5089 9.31533L21.754 7.62592L15.4909 6.71708Z" fill="white"/>
<path d="M15.4926 9.53171L15.2474 11.2211L21.5105 12.13L21.7557 10.4406L15.4926 9.53171Z" fill="white"/>
<path d="M9.74503 3.90351L3.48189 4.81235L3.72704 6.50177L9.99018 5.59293L9.74503 3.90351Z" fill="white"/>
<path d="M9.74486 6.71741L3.48172 7.62625L3.72687 9.31567L9.99001 8.40683L9.74486 6.71741Z" fill="white"/>
<path d="M9.74449 9.53086L3.48135 10.4397L3.7265 12.1291L9.98964 11.2203L9.74449 9.53086Z" fill="white"/>
</svg>
