<svg width="32" height="33" viewBox="0 0 32 33" fill="none" xmlns="http://www.w3.org/2000/svg">
<path d="M16.7776 7.14518C17.8624 7.14518 21.3997 7.01318 21.3997 5.30378C21.3997 3.59636 17.863 3.46436 16.7776 3.46436C15.6928 3.46436 12.1555 3.59636 12.1555 5.30378C12.1562 7.05608 16.0058 7.14518 16.7776 7.14518ZM16.7776 4.91702C18.4922 4.91702 19.449 5.22392 19.7018 5.28926C19.4483 5.38364 18.4883 5.69186 16.7776 5.69186C15.0669 5.69186 14.1075 5.38364 13.8534 5.3183C14.1062 5.22392 15.063 4.91702 16.7776 4.91702Z" fill="white"/>
<path d="M27.5219 5.58295C27.5219 2.97331 22.073 1.60843 16.6906 1.60843C11.3082 1.60843 5.85856 2.97265 5.85856 5.58295C5.85856 5.67733 5.88096 5.76577 5.8944 5.85685C5.87904 5.91823 5.85856 5.97895 5.85856 6.04627V24.1435C5.85856 26.7993 10.9933 28.0454 15.9181 28.1127V30.6663C15.9181 30.9771 16.1043 31.253 16.3834 31.3533C16.4525 31.3777 16.5254 31.3909 16.6029 31.3909C16.8141 31.3909 17.0182 31.2847 17.1469 31.1078C17.168 31.0788 19.3171 28.1477 22.3565 27.6395C25.9456 27.0382 27.3389 25.3566 27.353 25.3407C27.4618 25.2087 27.5219 25.0384 27.5219 24.8629V5.76907C27.5219 5.74135 27.5104 5.71693 27.5078 5.69053C27.5098 5.65357 27.5219 5.61991 27.5219 5.58295ZM16.6906 3.06043C22.8128 3.06043 26.1523 4.72693 26.1523 5.58295C26.1523 5.64499 26.0973 5.71825 26.0627 5.78755C26.0109 5.86741 25.9411 5.96179 25.8336 6.07861C24.9075 6.95839 21.7766 8.10415 16.6906 8.10415C10.5683 8.10415 7.2288 6.43897 7.2288 5.58295C7.2288 4.72693 10.5677 3.06043 16.6906 3.06043ZM15.9834 12.571C15.9406 12.6682 15.9185 12.7738 15.9187 12.8806V26.6528C10.1843 26.5769 7.27104 25.0642 7.22176 24.1752V24.1224H7.23328C7.23919 24.0652 7.23768 24.0075 7.2288 23.9508V7.61839C9.18272 8.89615 12.9504 9.55681 16.6906 9.55681C17.401 9.55681 18.1107 9.53107 18.8109 9.48421C16.7904 10.8563 16.025 12.4753 15.9834 12.571ZM22.1421 26.204C20.0243 26.5584 18.3206 27.8507 17.2877 28.8823L17.2864 13.0647C17.6173 12.4516 18.9549 10.3825 22.2477 9.46507C23.9091 9.00307 25.2224 8.40841 26.1523 7.70089V23.9422C26.1491 23.9633 26.1568 23.9897 26.1562 24.0121V24.1428L26.1523 24.1435C26.1523 24.1514 26.1562 24.1573 26.1562 24.1653V24.5428C25.7453 24.9091 24.5293 25.8027 22.1421 26.204Z" fill="white"/>
</svg>
